<svg width="66" height="54" viewBox="0 0 66 54" fill="none" xmlns="http://www.w3.org/2000/svg">
<g clip-path="url(#clip0_100_3)">
<path d="M0.0432861 35.5564C0.0432861 35.5511 0.0432861 35.5459 0.045969 35.5432C0.260603 34.3921 0.510115 33.2436 0.676457 32.0872C0.928652 30.3171 1.02524 28.5469 1.68792 26.8268C2.44182 24.8644 2.84963 22.7782 3.55792 20.7973C4.36012 18.5556 5.95377 17.9498 8.11353 18.8954C9.03914 19.3011 9.38524 19.9333 8.96402 20.9079C8.07865 22.9547 7.02426 24.954 6.39914 27.0745C5.76597 29.2213 5.56207 31.4893 5.17841 33.7046C5.07646 34.2999 5.00938 34.9031 4.92621 35.5011C4.85377 36.1333 4.99329 35.941 5.29109 35.7276C5.46011 35.538 5.65865 35.3615 5.84109 35.1797C6.02621 34.9927 6.7506 33.5097 6.98133 32.9749C8.09475 30.3777 9.17597 27.7646 10.284 25.1673C10.496 24.6721 10.8018 24.2138 11.0835 23.7502C12.2291 21.8615 13.8577 22.3146 15.2904 23.031C16.326 23.55 16.1891 24.4667 15.835 25.3227C14.9443 27.4617 14.6679 29.6691 14.9577 31.9503C15.0382 32.5877 15.2152 33.2146 15.3494 33.8468C15.4245 34.213 15.505 34.263 15.7196 33.9601C16.0657 33.3911 16.4843 32.8538 16.7418 32.2506C18.8077 27.4485 19.9077 22.4041 20.5891 17.2596C20.6267 16.9725 20.6455 16.6617 20.573 16.3851C20.3504 15.5316 20.2699 14.7651 21.4504 14.5991C22.9582 14.3884 23.9133 14.9547 23.865 16.2481C23.7872 18.3317 23.6074 20.4232 23.2989 22.4858C22.6389 26.9217 21.5362 31.2417 19.245 35.1745C18.6574 36.1833 17.9626 37.1474 17.2113 38.0483C16.1945 39.2679 14.9657 39.5287 13.4445 39.0019C11.9072 38.4698 11.0835 37.4135 11.0782 35.8251C11.0728 34.1419 11.1318 32.456 11.1694 30.6437C11.1721 30.5515 11.0433 30.5199 11.0004 30.6042C10.7857 31.0415 10.5818 31.4287 10.4343 31.8344C9.65085 33.997 8.85133 36.157 8.13768 38.3433C7.83987 39.2547 7.26304 40.0582 6.45548 40.5929C5.40109 41.2883 3.96304 41.8283 2.67792 41.3805C1.45451 40.9538 -0.02647 39.397 0.000359295 38.0667L0.0432861 35.5564Z" fill="#37D0C3"/>
<path d="M34.0739 0.0797859C36.5288 0.264176 38.9649 0.759396 41.24 1.52857C48.441 3.95988 53.5895 8.4274 56.7473 14.7072C56.8895 14.9891 56.9405 15.3052 57.0693 15.7872C57.0854 15.8504 57.1444 16.0032 56.9915 15.8689C56.0203 15.0075 55.3281 14.3832 54.3917 13.5455C54.3461 13.506 54.1583 13.3111 54.2334 13.5271C54.4239 14.0566 54.542 14.4227 54.6654 14.7836C55.0034 15.616 54.7861 15.4553 54.3944 14.9206C53.9893 14.4122 53.5681 13.9143 53.1844 13.3954C50.8154 10.1896 48.0413 7.33159 44.2771 5.36652C35.5925 0.833152 25.7059 1.54174 17.4532 7.11559C14.4295 9.15705 12.6481 11.973 10.66 14.7151C10.0295 15.5844 8.90003 16.2113 7.87784 16.7776C7.39223 17.0463 6.66784 16.8251 7.03272 16.0295C9.0932 11.5357 12.0498 7.64505 16.4713 4.71325C19.7471 2.54271 23.5354 1.06496 27.4444 0.380079C29.6042 0.00339566 31.8471 -0.0861653 34.0739 0.0797859Z" fill="#37D0C3" fill-opacity="0.5"/>
<path d="M32.6086 54.0482C30.8593 54.0719 29.1128 53.9454 27.3903 53.6662C26.7089 53.5556 26.0301 53.4213 25.3567 53.2632C17.9867 51.5431 12.5001 47.7631 8.85398 42.1445C8.70105 41.91 8.62593 41.6387 8.47837 41.2462C8.44885 41.1672 8.54007 41.0961 8.60715 41.1435C9.59446 41.8442 10.402 42.4184 11.3679 43.1059C11.4189 43.1428 11.4725 43.1059 11.4484 43.0506C11.223 42.5712 11.0728 42.2419 10.9198 41.9153C10.6757 41.3542 10.8232 41.4622 11.1774 41.7652C11.6201 42.2077 12.0789 42.6397 12.5028 43.0954C15.1213 45.9087 18.1128 48.3637 22.0191 49.9099C31.0337 53.4792 40.8264 52.0647 48.6042 46.2327C51.4535 44.0964 53.0042 41.3332 54.7642 38.62C55.3223 37.7613 56.3981 37.0895 57.3693 36.4837C57.8308 36.1966 58.5686 36.3467 58.2708 37.1159C56.5779 41.4701 53.9432 45.3265 49.7713 48.3979C44.832 52.0383 38.7203 53.9613 32.6086 54.0482Z" fill="#37D0C3" fill-opacity="0.5"/>
<path d="M50.337 31.1811C50.5946 30.6279 50.8763 30.0826 51.107 29.5189C52.1292 26.998 53.1192 24.464 54.1575 21.9484C54.4258 21.2951 54.7665 20.6577 55.1582 20.0676C55.9202 18.927 57.1329 18.7347 58.5333 19.4644C59.6655 20.0544 59.3785 20.9448 59.0672 21.8562C58.4072 23.7818 58.2007 25.7179 58.6299 27.8963C58.689 28.1913 58.7399 28.4995 58.8419 28.7998C58.9358 29.0764 59.0511 29.2265 59.3007 28.892C59.679 28.3836 59.9124 27.9753 60.0787 27.5539C61.7019 23.4393 62.6355 19.1615 63.1131 14.7809C63.1533 14.4095 63.207 14.0064 63.1077 13.6561C62.8582 12.7658 62.9763 12.1731 64.0682 12.0809C65.3426 11.9729 65.9811 12.3759 66.0026 13.4691C66.126 19.5513 64.9402 25.3517 62.0024 30.7438C61.5865 31.5077 60.9909 32.1952 60.3846 32.8327C59.408 33.86 58.1604 33.8099 56.9531 33.3516C55.7672 32.9012 55.1877 31.9766 55.2038 30.7017C55.2199 29.3214 55.2092 27.9411 55.2092 26.3079C55.2092 26.2157 55.0777 26.1867 55.0402 26.271C54.7075 26.9954 54.4258 27.5723 54.2004 28.1702C53.476 30.0879 52.8268 32.0345 52.0648 33.9364C51.4048 35.588 50.5624 36.1148 49.2316 35.8988C47.2731 35.5801 45.8109 34.3157 45.7787 32.7352C45.6741 27.3563 46.707 22.1723 48.7863 17.2017C49.3953 15.7423 51.6275 15.2814 52.7409 16.414C53.0548 16.7354 53.1192 17.6179 52.9072 18.0604C51.4799 21.0317 50.4497 24.1189 50.007 27.3695C49.838 28.5996 49.9802 29.8693 49.9802 31.1205C50.0285 31.5235 50.1653 31.5314 50.337 31.1811Z" fill="#37D0C3"/>
<path d="M44.3839 26.7794C44.3839 26.7847 44.3866 26.79 44.3866 26.7952C44.3839 31.2469 41.7573 35.2587 37.7839 36.7023C33.7246 38.1774 28.9785 37.0263 26.4431 33.7731C23.7012 30.2512 23.7709 26.3606 25.3485 22.4779C26.7463 19.0403 30.049 16.6933 33.8078 16.4299C34.7227 16.364 35.7395 16.1691 36.2573 17.3255C36.3458 17.5257 36.8288 17.6152 37.1427 17.6521C40.5231 18.0446 42.7231 19.7963 43.638 22.9889C43.9922 24.2217 44.1424 25.5124 44.3839 26.7794ZM40.88 27.1456C40.88 27.1429 40.88 27.1403 40.88 27.1377C40.88 27.0323 40.9122 26.6135 40.8746 26.2026C40.6305 23.5526 39.729 21.0923 36.3405 20.7551C35.9568 20.7156 35.608 20.3995 35.227 20.252C34.7817 20.0808 34.2827 19.7594 33.8722 19.8385C30.2851 20.5312 28.2005 23.2523 28.12 27.222C28.0529 30.5594 29.6653 33.1672 32.3107 34.0128C36.1446 35.2429 41.3522 32.269 40.88 27.1456Z" fill="#37D0C3"/>
</g>
<defs>
<clipPath id="clip0_100_3">
<rect width="66" height="54" fill="white"/>
</clipPath>
</defs>
</svg>
